<svg width="26" height="29" viewBox="0 0 26 29" fill="none" xmlns="http://www.w3.org/2000/svg">
<path d="M2.66321 12.0977C2.71466 11.4566 3.00568 10.8584 3.47833 10.4223C3.95097 9.98615 4.57055 9.74404 5.21367 9.74417H20.6367C21.2798 9.74404 21.8994 9.98615 22.372 10.4223C22.8447 10.8584 23.1357 11.4566 23.1872 12.0977L24.2143 24.8884C24.2425 25.2403 24.1976 25.5944 24.0823 25.9282C23.967 26.2619 23.7839 26.5682 23.5444 26.8277C23.3049 27.0873 23.0144 27.2944 22.6909 27.4361C22.3675 27.5778 22.0182 27.651 21.6651 27.6511H4.1853C3.83218 27.651 3.4829 27.5778 3.15946 27.4361C2.83602 27.2944 2.54542 27.0873 2.30596 26.8277C2.0665 26.5682 1.88336 26.2619 1.76808 25.9282C1.65279 25.5944 1.60786 25.2403 1.63611 24.8884L2.66321 12.0977V12.0977Z" stroke="white" stroke-width="2.55814" stroke-linecap="round" stroke-linejoin="round"/>
<path d="M18.0414 13.5814V7.18604C18.0414 5.82912 17.5024 4.52778 16.5429 3.56829C15.5834 2.6088 14.2821 2.06976 12.9252 2.06976C11.5682 2.06976 10.2669 2.6088 9.30741 3.56829C8.34792 4.52778 7.80888 5.82912 7.80888 7.18604V13.5814" stroke="white" stroke-width="2.55814" stroke-linecap="round" stroke-linejoin="round"/>
</svg>
