<svg width="18" height="19" viewBox="0 0 18 19" fill="none" xmlns="http://www.w3.org/2000/svg">
<path fill-rule="evenodd" clip-rule="evenodd" d="M12.7681 12.2689L17.5631 17.0639C17.7316 17.2326 17.8263 17.4613 17.8262 17.6997C17.8261 17.9381 17.7313 18.1668 17.5627 18.3353C17.394 18.5038 17.1653 18.5985 16.9269 18.5984C16.6884 18.5983 16.4598 18.5035 16.2913 18.3349L11.4962 13.5398C10.0628 14.6501 8.2603 15.1725 6.45534 15.0009C4.65039 14.8293 2.9786 13.9766 1.78007 12.6161C0.581532 11.2557 -0.0537124 9.48975 0.0035618 7.67756C0.060836 5.86537 0.806326 4.14307 2.08838 2.86102C3.37042 1.57897 5.09273 0.83348 6.90492 0.776206C8.7171 0.718932 10.483 1.35418 11.8435 2.55271C13.2039 3.75124 14.0567 5.42303 14.2283 7.22799C14.3999 9.03294 13.8774 10.8355 12.7672 12.2689H12.7681ZM7.13081 13.2502C8.54909 13.2502 9.90927 12.6868 10.9121 11.6839C11.915 10.681 12.4784 9.32084 12.4784 7.90257C12.4784 6.48429 11.915 5.1241 10.9121 4.12123C9.90927 3.11836 8.54909 2.55495 7.13081 2.55495C5.71254 2.55495 4.35235 3.11836 3.34948 4.12123C2.34661 5.1241 1.7832 6.48429 1.7832 7.90257C1.7832 9.32084 2.34661 10.681 3.34948 11.6839C4.35235 12.6868 5.71254 13.2502 7.13081 13.2502Z" fill="#A0A0A0"/>
</svg>
